# xmcd
#
# Track frame offsets:
#  150
#  21185
#  36704
#  53898
#  73634
#  90923
#  103732
#  120521
#  141315
#  156730
#  173773
#  190096
#  235587
#  258815
#
# Disc length: 3693 seconds
#
# Revision: 0
# Processed by: cddbd v1.5.2PL0 Copyright (c) Steve Scherf et al.
# Submitted via: AltoMP3_Maker 3.0
#
DISCID=be0e6b0e
DTITLE=Zac Brown Band - You Get What You Give
DYEAR=1900
DGENRE=
TTITLE0=Let It Go
TTITLE1=Knee Deep (Feat. Jimmy Buffett)
TTITLE2=No Hurry
TTITLE3=I Play The Road
TTITLE4=Cold Hearted
TTITLE5=Whiskey's Gone
TTITLE6=Quiet Your Mind
TTITLE7=Colder Weather
TTITLE8=Settle Me Down
TTITLE9=As She's Walking Away (Feat. Alan Jackson)
TTITLE10=Keep Me In Mind
TTITLE11=Who Knows
TTITLE12=Martin
TTITLE13=Make This Day
EXTD=
EXTT0=
EXTT1=
EXTT2=
EXTT3=
EXTT4=
EXTT5=
EXTT6=
EXTT7=
EXTT8=
EXTT9=
EXTT10=
EXTT11=
EXTT12=
EXTT13=
PLAYORDER=
